<?xml version="1.0" encoding="utf-8"?>
<!-- Generator: Adobe Illustrator 16.0.0, SVG Export Plug-In . SVG Version: 6.00 Build 0)  -->
<!DOCTYPE svg PUBLIC "-//W3C//DTD SVG 1.1//EN" "http://www.w3.org/Graphics/SVG/1.1/DTD/svg11.dtd">
<svg version="1.1" id="Layer_1" xmlns="http://www.w3.org/2000/svg" xmlns:xlink="http://www.w3.org/1999/xlink" x="0px" y="0px"
	 width="280px" height="310.929px" viewBox="0 0 280 310.929" enable-background="new 0 0 280 310.929" xml:space="preserve">
<g>
	<path fill="#FFFFFF" d="M190.054,231.175h-2.783v12.877h2.783c4.699,0,6.148-1.451,6.148-6.439
		C196.202,232.626,194.753,231.175,190.054,231.175z"/>
	<path fill="#FFFFFF" d="M60.89,231.175h-2.55v12.877h2.55c3.887,0,5.336-1.451,5.336-6.439
		C66.226,232.626,64.776,231.175,60.89,231.175z"/>
	<path fill="#FFFFFF" d="M278.457,0.191c-0.937-0.389-2.011-0.172-2.725,0.541l-6.322,6.321l-6.32-6.32
		c-0.977-0.977-2.56-0.976-3.535-0.001l-6.325,6.322l-6.324-6.322C246.437,0.263,245.799,0,245.139,0h-0.003
		c-0.664,0.001-1.298,0.265-1.767,0.733l-6.309,6.318l-6.32-6.32c-0.938-0.938-2.599-0.937-3.535,0.001l-6.322,6.321l-6.322-6.322
		c-0.976-0.975-2.558-0.975-3.535,0l-6.323,6.322l-6.319-6.321c-0.978-0.977-2.56-0.976-3.535-0.001l-6.324,6.322l-6.321-6.321
		c-0.938-0.938-2.598-0.938-3.533,0.001l-6.313,6.318l-6.318-6.319C165.568,0.264,164.932,0,164.269,0
		c-0.664,0-1.298,0.263-1.766,0.731l-6.323,6.322l-6.321-6.321c-0.976-0.977-2.56-0.976-3.534-0.001L140,7.054l-6.321-6.322
		c-0.978-0.975-2.561-0.975-3.537,0l-6.321,6.322l-6.322-6.322c-0.938-0.938-2.598-0.937-3.535,0.001l-6.32,6.319l-6.312-6.318
		C100.862,0.265,100.227,0,99.564,0h-0.003c-0.661,0-1.298,0.263-1.767,0.731l-6.323,6.322l-6.319-6.321
		c-0.977-0.977-2.56-0.976-3.535-0.001l-6.323,6.322l-6.322-6.321C68.503,0.264,67.869,0,67.205,0c-0.661,0-1.299,0.263-1.769,0.731
		l-6.322,6.322l-6.32-6.322c-0.978-0.975-2.562-0.975-3.536,0l-6.321,6.32l-6.309-6.318C36.16,0.265,35.523,0.001,34.859,0
		c-0.664,0-1.299,0.263-1.768,0.731l-6.323,6.322l-6.321-6.322c-0.938-0.938-2.599-0.937-3.535,0.001l-6.32,6.321L4.268,0.732
		C3.552,0.019,2.48-0.198,1.544,0.191C0.609,0.578,0,1.49,0,2.5v305.927c0,1.012,0.609,1.924,1.544,2.311
		c0.937,0.389,2.01,0.174,2.724-0.543l6.319-6.32l6.325,6.322c0.976,0.975,2.558,0.975,3.535,0l6.321-6.322l6.321,6.32
		c0.469,0.471,1.104,0.732,1.768,0.732c0.663,0,1.301-0.264,1.771-0.732l6.305-6.318l6.322,6.32c0.978,0.975,2.559,0.975,3.536,0
		l6.323-6.322l6.321,6.32c0.976,0.977,2.559,0.977,3.535,0.002l6.323-6.322l6.32,6.322c0.978,0.975,2.56,0.975,3.535,0l6.322-6.322
		l6.323,6.322c0.469,0.469,1.105,0.73,1.767,0.73h0.003c0.662,0,1.298-0.264,1.767-0.732l6.31-6.318l6.322,6.32
		c0.977,0.975,2.558,0.975,3.535,0l6.322-6.322l6.321,6.322c0.977,0.975,2.56,0.975,3.537-0.002l6.319-6.32l6.322,6.322
		c0.976,0.975,2.559,0.975,3.535,0l6.324-6.322l6.32,6.32c0.977,0.977,2.559,0.977,3.533,0.002l6.322-6.32l6.307,6.318
		c0.469,0.469,1.105,0.732,1.77,0.732s1.298-0.262,1.767-0.73l6.325-6.322l6.324,6.322c0.976,0.975,2.558,0.975,3.535-0.002
		l6.319-6.32l6.323,6.322c0.978,0.975,2.56,0.975,3.535-0.002l6.319-6.32l6.325,6.322c0.976,0.975,2.559,0.975,3.535-0.002
		l6.32-6.318l6.309,6.318c0.469,0.469,1.105,0.732,1.767,0.732h0.003c0.66,0,1.298-0.262,1.767-0.732l6.321-6.32l6.324,6.322
		c0.978,0.975,2.559,0.975,3.536,0l6.323-6.324l6.322,6.322c0.479,0.479,1.116,0.732,1.768,0.732c0.321,0,0.646-0.061,0.957-0.189
		c0.933-0.387,1.543-1.299,1.543-2.311V2.5C280,1.49,279.39,0.578,278.457,0.191z M67.153,267.134l-5.104-17.342
		c-0.927,0.117-2.435,0.174-3.709,0.174v17.168h-7.194v-41.875h10.094c8.06,0,12.18,3.422,12.18,12.354
		c0,6.729-2.611,9.455-5.047,10.557l6.09,18.965H67.153z M119.383,165.259h7.192v41.875h-7.192V165.259z M101.663,267.134H81.597
		v-41.875h19.256v6.264H88.788v10.789h9.281v6.264h-9.281v12.295h12.875V267.134z M104.996,204.003
		c-2.144,2.551-3.886,3.711-7.249,3.711c-5.682,0-9.625-4.059-9.625-10.729V175.41c0-5.916,3.478-10.73,10.555-10.73
		c7.191,0,10.788,5.221,10.788,11.484v2.668h-6.845c0-6.264-1.275-7.889-4.117-7.889c-1.742,0-3.189,1.045-3.189,4.582v21.518
		c0,2.668,0.867,4.408,3.363,4.408c2.9,0,3.943-1.623,3.943-5.799v-4.061h-4.582v-5.684h11.775v21.227h-3.482L104.996,204.003z
		 M129.097,239.238h-7.191v-3.248c0-3.539-1.623-5.047-3.48-5.047c-2.898,0-3.828,1.508-3.828,4.641v21.227
		c0,3.133,0.93,4.641,3.828,4.641c2.611,0,3.48-1.508,3.48-4.234v-5.045h7.191v4.814c0,5.914-3.479,10.729-10.672,10.729
		c-7.539,0-11.02-4.814-11.02-10.729V235.41c0-5.916,3.48-10.73,11.02-10.73c7.193,0,10.672,5.221,10.672,11.484V239.238z
		 M155.894,267.134h-20.068v-41.875h19.254v6.264h-12.061v10.789h9.28v6.264h-9.28v12.295h12.875V267.134z M149.427,207.134h-7.191
		l-8.758-41.875h7.076l5.219,29.059h0.117l5.219-29.059h7.075L149.427,207.134z M170.624,267.134h-7.194v-41.875h7.194V267.134z
		 M164.565,207.134v-41.875h19.254v6.264h-12.062v10.789h9.278v6.264h-9.278v12.295h12.875v6.264H164.565z M190.403,249.966h-3.133
		v17.168h-7.191v-41.875h10.324c8.873,0,12.99,3.422,12.99,12.354S199.276,249.966,190.403,249.966z M228.856,231.523h-6.959v35.611
		h-7.193v-35.611h-6.961v-6.264h21.113V231.523z"/>
</g>
</svg>
