<?xml version="1.0" encoding="utf-8"?>
<!-- Generator: Adobe Illustrator 16.0.0, SVG Export Plug-In . SVG Version: 6.00 Build 0)  -->
<!DOCTYPE svg PUBLIC "-//W3C//DTD SVG 1.1//EN" "http://www.w3.org/Graphics/SVG/1.1/DTD/svg11.dtd">
<svg version="1.1" id="Layer_1" xmlns="http://www.w3.org/2000/svg" xmlns:xlink="http://www.w3.org/1999/xlink" x="0px" y="0px"
	 width="280px" height="310.93px" viewBox="0 0 280 310.93" enable-background="new 0 0 280 310.93" xml:space="preserve">
<g>
	<g>
		<polygon fill="#FFFFFF" points="269.41,10.588 261.321,2.5 253.229,10.59 245.139,2.5 237.062,10.59 228.972,2.5 220.883,10.59 
			212.794,2.5 204.702,10.59 196.614,2.5 188.523,10.59 180.436,2.5 172.357,10.59 164.269,2.5 156.18,10.59 148.092,2.5 140,10.59 
			131.91,2.5 123.82,10.59 115.729,2.5 107.643,10.59 99.562,2.5 91.472,10.59 83.383,2.5 75.294,10.59 67.205,2.5 59.114,10.59 
			51.025,2.5 42.936,10.59 34.859,2.5 26.769,10.59 18.68,2.5 10.592,10.59 2.5,2.5 2.5,308.428 10.587,300.34 18.68,308.428 
			26.769,300.34 34.857,308.428 42.932,300.34 51.023,308.428 59.114,300.34 67.202,308.428 75.294,300.34 83.383,308.428 
			91.472,300.34 99.562,308.428 107.639,300.34 115.729,308.428 123.82,300.34 131.91,308.428 139.998,300.34 148.087,308.428 
			156.18,300.34 164.268,308.428 172.357,300.34 180.432,308.428 188.523,300.34 196.614,308.428 204.702,300.34 212.794,308.428 
			220.88,300.34 228.972,308.428 237.061,300.34 245.139,308.428 253.227,300.34 261.316,308.428 269.41,300.338 277.5,308.428 
			277.5,2.5 		"/>
		<path fill="#231F20" d="M277.5,310.928c-0.651,0-1.289-0.254-1.768-0.732l-6.322-6.322l-6.323,6.323
			c-0.978,0.976-2.559,0.976-3.536,0l-6.324-6.321l-6.321,6.32c-0.469,0.47-1.106,0.732-1.767,0.732h-0.003
			c-0.661,0-1.298-0.264-1.767-0.732l-6.309-6.318l-6.32,6.318c-0.977,0.977-2.56,0.977-3.535,0.001l-6.325-6.321l-6.319,6.32
			c-0.976,0.977-2.558,0.977-3.535,0.001l-6.323-6.321l-6.319,6.32c-0.978,0.977-2.56,0.977-3.535,0.001l-6.324-6.321l-6.325,6.321
			c-0.469,0.469-1.103,0.731-1.767,0.731l0,0c-0.664,0-1.301-0.264-1.77-0.732l-6.307-6.318l-6.322,6.319
			c-0.975,0.976-2.557,0.976-3.533-0.001l-6.32-6.32l-6.324,6.321c-0.977,0.976-2.56,0.976-3.535,0l-6.322-6.321l-6.319,6.32
			c-0.978,0.977-2.561,0.977-3.537,0.001l-6.321-6.321l-6.322,6.321c-0.978,0.976-2.559,0.976-3.535,0l-6.322-6.319l-6.31,6.318
			c-0.469,0.469-1.104,0.732-1.767,0.732h-0.003c-0.661,0-1.298-0.263-1.767-0.731l-6.323-6.321l-6.322,6.321
			c-0.976,0.976-2.558,0.976-3.535,0l-6.32-6.321l-6.323,6.321c-0.977,0.976-2.56,0.976-3.535-0.001l-6.321-6.32l-6.323,6.321
			c-0.978,0.976-2.559,0.976-3.536,0l-6.322-6.319l-6.305,6.318c-0.47,0.469-1.107,0.732-1.771,0.732l0,0
			c-0.664,0-1.299-0.263-1.768-0.732l-6.321-6.32l-6.321,6.321c-0.978,0.976-2.56,0.976-3.535,0l-6.325-6.321l-6.319,6.32
			c-0.714,0.716-1.787,0.932-2.724,0.543C0.609,310.352,0,309.439,0,308.428V2.5c0-1.011,0.609-1.922,1.544-2.309
			C2.48-0.197,3.552,0.02,4.268,0.732l6.324,6.322l6.32-6.322c0.937-0.938,2.598-0.938,3.535,0l6.321,6.322l6.323-6.322
			C33.561,0.264,34.195,0,34.859,0l0,0c0.664,0.001,1.301,0.265,1.769,0.734l6.309,6.318l6.321-6.32
			c0.975-0.976,2.559-0.976,3.536,0l6.32,6.322l6.322-6.322C65.906,0.264,66.544,0,67.205,0l0,0c0.664,0,1.298,0.264,1.767,0.732
			l6.322,6.322l6.323-6.322c0.976-0.976,2.559-0.977,3.535,0l6.319,6.321l6.323-6.321C98.264,0.264,98.9,0,99.562,0h0.003
			c0.662,0,1.298,0.265,1.767,0.734l6.312,6.318l6.32-6.32c0.938-0.938,2.598-0.938,3.535,0l6.322,6.322l6.321-6.322
			c0.977-0.976,2.56-0.976,3.537,0L140,7.055l6.324-6.322c0.975-0.976,2.559-0.977,3.534,0l6.321,6.321l6.323-6.321
			C162.971,0.264,163.604,0,164.269,0l0,0c0.663,0,1.3,0.264,1.769,0.732l6.318,6.32l6.313-6.318
			c0.936-0.94,2.596-0.939,3.533-0.002l6.321,6.322l6.324-6.322c0.976-0.976,2.558-0.977,3.535,0l6.319,6.321l6.323-6.321
			c0.978-0.976,2.56-0.976,3.535,0l6.322,6.322l6.322-6.322c0.937-0.938,2.598-0.938,3.535,0l6.32,6.32l6.309-6.318
			c0.469-0.47,1.103-0.733,1.767-0.734h0.003c0.66,0,1.298,0.264,1.767,0.732l6.324,6.322l6.325-6.322
			c0.976-0.976,2.559-0.977,3.535,0l6.32,6.32l6.322-6.32c0.714-0.713,1.788-0.93,2.725-0.541C279.39,0.578,280,1.489,280,2.5
			v305.928c0,1.012-0.61,1.924-1.543,2.311C278.146,310.866,277.821,310.928,277.5,310.928z M42.932,297.84
			c0.664,0,1.298,0.264,1.767,0.732l6.325,6.321l6.324-6.321c0.977-0.976,2.559-0.977,3.535,0l6.319,6.32l6.323-6.32
			c0.978-0.976,2.56-0.976,3.535,0l6.322,6.32l6.322-6.32c0.976-0.976,2.559-0.976,3.535,0l6.32,6.319l6.309-6.317
			c0.469-0.47,1.104-0.733,1.767-0.734h0.003c0.66,0,1.298,0.264,1.767,0.732l6.324,6.32l6.322-6.32
			c0.978-0.976,2.559-0.976,3.535,0l6.323,6.32l6.319-6.32c0.978-0.977,2.56-0.976,3.535,0l6.322,6.32l6.324-6.32
			c0.977-0.976,2.56-0.977,3.535,0l6.321,6.32l6.322-6.32c0.469-0.469,1.104-0.732,1.768-0.732l0,0
			c0.663,0.001,1.301,0.265,1.771,0.734l6.305,6.317l6.322-6.319c0.978-0.976,2.559-0.976,3.536,0l6.323,6.32l6.321-6.32
			c0.976-0.977,2.559-0.976,3.535,0l6.323,6.32l6.319-6.32c0.977-0.977,2.558-0.976,3.535,0l6.323,6.32l6.322-6.32
			c0.467-0.469,1.104-0.732,1.767-0.732h0.001c0.663,0,1.3,0.265,1.769,0.734l6.309,6.317l6.321-6.319
			c0.976-0.977,2.556-0.976,3.534,0l6.322,6.321l6.326-6.323c0.975-0.976,2.559-0.977,3.534,0l3.823,3.822V8.535l-3.823,3.821
			c-0.976,0.976-2.56,0.976-3.534-0.001l-6.321-6.32l-6.323,6.322c-0.978,0.976-2.559,0.976-3.535,0l-6.322-6.32l-6.31,6.318
			c-0.469,0.47-1.105,0.733-1.767,0.734h-0.003c-0.661,0-1.298-0.264-1.767-0.732l-6.323-6.321l-6.319,6.321
			c-0.977,0.977-2.558,0.976-3.535,0l-6.323-6.322l-6.323,6.322c-0.468,0.469-1.104,0.732-1.769,0.732l0,0
			c-0.661,0-1.298-0.264-1.767-0.732l-6.321-6.322l-6.323,6.322c-0.978,0.976-2.559,0.977-3.536,0l-6.318-6.32l-6.311,6.318
			c-0.938,0.939-2.601,0.938-3.536,0.002l-6.321-6.321l-6.322,6.321c-0.469,0.469-1.105,0.732-1.767,0.732l0,0
			c-0.664,0-1.3-0.264-1.769-0.732l-6.319-6.322l-6.324,6.322c-0.977,0.976-2.558,0.976-3.535,0l-6.322-6.322l-6.323,6.322
			c-0.977,0.976-2.558,0.976-3.535,0l-6.322-6.321l-6.319,6.321c-0.469,0.469-1.106,0.732-1.768,0.732h-0.002
			c-0.663,0-1.299-0.265-1.768-0.734l-6.312-6.318l-6.321,6.32c-0.469,0.469-1.104,0.732-1.769,0.732l0,0
			c-0.66,0-1.298-0.264-1.767-0.732l-6.322-6.322l-6.322,6.322c-0.976,0.976-2.558,0.977-3.535,0l-6.32-6.321l-6.322,6.321
			c-0.977,0.976-2.559,0.976-3.535,0l-6.322-6.322l-6.323,6.322c-0.47,0.469-1.103,0.732-1.767,0.732l0,0
			c-0.664-0.001-1.301-0.265-1.767-0.734l-6.312-6.318l-6.321,6.32c-0.976,0.976-2.558,0.976-3.533,0L18.68,6.036l-6.32,6.321
			c-0.977,0.977-2.561,0.976-3.535,0L5,8.535v293.857l3.819-3.82c0.978-0.977,2.56-0.976,3.535,0l6.325,6.32l6.323-6.32
			c0.976-0.976,2.558-0.977,3.533,0l6.318,6.318l6.308-6.316C41.631,298.104,42.268,297.841,42.932,297.84L42.932,297.84z"/>
	</g>
</g>
<g>
	<path fill="#231F20" d="M98.038,185.907h11.775v21.228h-3.482l-1.335-3.132c-2.144,2.552-3.886,3.712-7.249,3.712
		c-5.682,0-9.625-4.06-9.625-10.729V175.41c0-5.916,3.478-10.73,10.555-10.73c7.191,0,10.788,5.22,10.788,11.484v2.668h-6.845
		c0-6.265-1.275-7.889-4.117-7.889c-1.742,0-3.189,1.045-3.189,4.582v21.518c0,2.668,0.867,4.408,3.363,4.408
		c2.9,0,3.943-1.624,3.943-5.8v-4.06h-4.582V185.907z"/>
	<path fill="#231F20" d="M119.383,207.135V165.26h7.192v41.875H119.383z"/>
	<path fill="#231F20" d="M151.108,165.26h7.075l-8.757,41.875h-7.191l-8.758-41.875h7.076l5.219,29.058h0.117L151.108,165.26z"/>
	<path fill="#231F20" d="M164.565,207.135V165.26h19.254v6.264h-12.062v10.788h9.278v6.264h-9.278v12.296h12.875v6.264H164.565z"/>
	<path fill="#231F20" d="M58.34,267.135h-7.194V225.26h10.094c8.06,0,12.18,3.422,12.18,12.354c0,6.728-2.611,9.454-5.047,10.556
		l6.09,18.966h-7.309l-5.104-17.342c-0.927,0.116-2.435,0.174-3.709,0.174V267.135z M58.34,244.052h2.55
		c3.887,0,5.336-1.45,5.336-6.438c0-4.987-1.449-6.438-5.336-6.438h-2.55V244.052z"/>
	<path fill="#231F20" d="M81.597,267.135V225.26h19.256v6.264H88.788v10.788h9.281v6.264h-9.281v12.296h12.875v6.264H81.597z"/>
	<path fill="#231F20" d="M121.905,239.237v-3.248c0-3.538-1.623-5.046-3.48-5.046c-2.898,0-3.828,1.508-3.828,4.641v21.227
		c0,3.133,0.93,4.641,3.828,4.641c2.611,0,3.48-1.508,3.48-4.234v-5.046h7.191v4.814c0,5.915-3.479,10.729-10.672,10.729
		c-7.539,0-11.02-4.814-11.02-10.729v-21.576c0-5.916,3.48-10.729,11.02-10.729c7.193,0,10.672,5.22,10.672,11.483v3.074H121.905z"
		/>
	<path fill="#231F20" d="M135.825,267.135V225.26h19.254v6.264h-12.061v10.788h9.28v6.264h-9.28v12.296h12.875v6.264H135.825z"/>
	<path fill="#231F20" d="M163.43,267.135V225.26h7.194v41.875H163.43z"/>
	<path fill="#231F20" d="M180.079,267.135V225.26h10.324c8.873,0,12.99,3.422,12.99,12.354s-4.117,12.354-12.99,12.354h-3.133
		v17.168H180.079z M187.271,244.052h2.783c4.699,0,6.148-1.45,6.148-6.438c0-4.987-1.449-6.438-6.148-6.438h-2.783V244.052z"/>
	<path fill="#231F20" d="M214.704,231.523h-6.961v-6.264h21.113v6.264h-6.959v35.611h-7.193V231.523z"/>
</g>
</svg>
